<svg style="display: none" xmlns="http://www.w3.org/2000/svg">
  <symbol id="twitter-logo-silhouette" viewBox="0 0 612 612">
    <title>twitter-logo-silhouette</title>
    <path style="fill:#010002;" d="M612,116.258c-22.525,9.981-46.694,16.75-72.088,19.772c25.929-15.527,45.777-40.155,55.184-69.411 c-24.322,14.379-51.169,24.82-79.775,30.48c-22.907-24.437-55.49-39.658-91.63-39.658c-69.334,0-125.551,56.217-125.551,125.513 c0,9.828,1.109,19.427,3.251,28.606C197.065,206.32,104.556,156.337,42.641,80.386c-10.823,18.51-16.98,40.078-16.98,63.101 c0,43.559,22.181,81.993,55.835,104.479c-20.575-0.688-39.926-6.348-56.867-15.756v1.568c0,60.806,43.291,111.554,100.693,123.104 c-10.517,2.83-21.607,4.398-33.08,4.398c-8.107,0-15.947-0.803-23.634-2.333c15.985,49.907,62.336,86.199,117.253,87.194 c-42.947,33.654-97.099,53.655-155.916,53.655c-10.134,0-20.116-0.612-29.944-1.721c55.567,35.681,121.536,56.485,192.438,56.485 c230.948,0,357.188-191.291,357.188-357.188l-0.421-16.253C573.872,163.526,595.211,141.422,612,116.258z"/>
  </symbol>
  <symbol id="facebook-logo" viewBox="0 0 96.124 96.123">
    <title>facebook-logo</title>
    <path d="M72.089,0.02L59.624,0C45.62,0,36.57,9.285,36.57,23.656v10.907H24.037c-1.083,0-1.96,0.878-1.96,1.961v15.803 c0,1.083,0.878,1.96,1.96,1.96h12.533v39.876c0,1.083,0.877,1.96,1.96,1.96h16.352c1.083,0,1.96-0.878,1.96-1.96V54.287h14.654 c1.083,0,1.96-0.877,1.96-1.96l0.006-15.803c0-0.52-0.207-1.018-0.574-1.386c-0.367-0.368-0.867-0.575-1.387-0.575H56.842v-9.246 c0-4.444,1.059-6.7,6.848-6.7l8.397-0.003c1.082,0,1.959-0.878,1.959-1.96V1.98C74.046,0.899,73.17,0.022,72.089,0.02z"/>
  </symbol>
  <symbol id="linkedin-logo" viewBox="0 0 430.117 430.117">
    <title>linkedin-logo</title>
    <path id="LinkedIn" d="M430.117,261.543V420.56h-92.188V272.193c0-37.271-13.334-62.707-46.703-62.707 c-25.473,0-40.632,17.142-47.301,33.724c-2.432,5.928-3.058,14.179-3.058,22.477V420.56h-92.219c0,0,1.242-251.285,0-277.32h92.21 v39.309c-0.187,0.294-0.43,0.611-0.606,0.896h0.606v-0.896c12.251-18.869,34.13-45.824,83.102-45.824 C384.633,136.724,430.117,176.361,430.117,261.543z M52.183,9.558C20.635,9.558,0,30.251,0,57.463 c0,26.619,20.038,47.94,50.959,47.94h0.616c32.159,0,52.159-21.317,52.159-47.94C103.128,30.251,83.734,9.558,52.183,9.558z M5.477,420.56h92.184v-277.32H5.477V420.56z"/>
  </symbol>
  <symbol id="github-logo" viewBox="0 0 14 14">
    <title>github-logo</title>
    <path style="fill:#030104;" d="M9.435,7.973c0.269,0,0.492,0.133,0.686,0.396c0.192,0.265,0.294,0.588,0.294,0.975 c0,0.385-0.102,0.711-0.294,0.973c-0.193,0.265-0.417,0.396-0.686,0.396c-0.278,0-0.522-0.131-0.715-0.396 c-0.192-0.262-0.294-0.588-0.294-0.973c0-0.387,0.102-0.71,0.294-0.975C8.912,8.105,9.156,7.973,9.435,7.973 M12.875,4.414 C13.621,5.225,14,6.209,14,7.367c0,0.748-0.086,1.423-0.259,2.023c-0.175,0.597-0.394,1.084-0.654,1.459 c-0.264,0.376-0.588,0.705-0.974,0.989c-0.386,0.286-0.741,0.492-1.065,0.623c-0.325,0.132-0.695,0.233-1.111,0.306 c-0.417,0.071-0.726,0.111-0.943,0.123c-0.213,0.009-0.438,0.014-0.685,0.014c-0.055,0-0.243,0.004-0.547,0.015 C7.461,12.932,7.202,12.935,7,12.935s-0.461-0.003-0.762-0.016c-0.304-0.011-0.492-0.015-0.547-0.015 c-0.246,0-0.472-0.005-0.685-0.014c-0.218-0.012-0.526-0.052-0.943-0.123c-0.423-0.072-0.786-0.174-1.111-0.306 c-0.324-0.131-0.68-0.337-1.064-0.623c-0.387-0.284-0.711-0.613-0.975-0.989C0.652,10.474,0.434,9.987,0.259,9.39 C0.086,8.79,0,8.115,0,7.367c0-1.158,0.379-2.143,1.125-2.953C1.043,4.373,1.04,3.967,1.117,3.197 C1.18,2.426,1.344,1.715,1.612,1.065c0.934,0.099,2.09,0.629,3.471,1.581C5.549,2.527,6.184,2.463,7,2.463 c0.852,0,1.491,0.064,1.918,0.184c0.629-0.425,1.23-0.771,1.805-1.034c0.584-0.261,1.005-0.416,1.269-0.457l0.396-0.09 c0.27,0.649,0.434,1.36,0.496,2.132C12.96,3.967,12.957,4.373,12.875,4.414 M7.03,12.234c1.688,0,2.954-0.202,3.821-0.607 c0.855-0.404,1.292-1.238,1.292-2.496c0-0.73-0.273-1.34-0.822-1.828c-0.278-0.263-0.613-0.425-0.989-0.486 c-0.375-0.061-0.949-0.061-1.72,0c-0.769,0.062-1.298,0.09-1.582,0.09c-0.385,0-0.8-0.018-1.319-0.059 c-0.52-0.04-0.928-0.065-1.223-0.078C4.194,6.761,3.879,6.797,3.53,6.878C3.185,6.96,2.901,7.102,2.677,7.303 c-0.521,0.469-0.79,1.077-0.79,1.828c0,1.258,0.426,2.092,1.28,2.496c0.85,0.405,2.113,0.607,3.802,0.607H7.03 M4.596,7.973 c0.268,0,0.492,0.133,0.685,0.396c0.192,0.265,0.294,0.588,0.294,0.975c0,0.385-0.102,0.711-0.294,0.973 c-0.192,0.265-0.417,0.396-0.685,0.396c-0.279,0-0.522-0.131-0.716-0.396c-0.192-0.262-0.294-0.588-0.294-0.973 c0-0.387,0.102-0.71,0.294-0.975C4.073,8.105,4.316,7.973,4.596,7.973"/>
  </symbol>
</svg>
